<?xml version="1.0" standalone="no"?>
<!DOCTYPE svg PUBLIC "-//W3C//DTD SVG 20010904//EN"
 "http://www.w3.org/TR/2001/REC-SVG-20010904/DTD/svg10.dtd">
<svg version="1.0" xmlns="http://www.w3.org/2000/svg"
 width="4096.000000pt" height="4096.000000pt" viewBox="0 0 4096.000000 4096.000000"
 preserveAspectRatio="xMidYMid meet">
<metadata>
Created by potrace 1.14, written by Peter Selinger 2001-2017
</metadata>
<g transform="translate(0.000000,4096.000000) scale(0.100000,-0.100000)"
fill="#000000" stroke="none">
<path d="M28167 24154 c-1 -1 -49 -5 -107 -8 -143 -9 -196 -15 -226 -26 -14
-6 -23 -6 -20 -2 4 6 -140 -19 -244 -43 -98 -22 -304 -84 -362 -109 -21 -9
-41 -17 -45 -17 -67 -10 -579 -270 -591 -301 -2 -4 -8 -8 -13 -8 -14 0 -196
-130 -310 -222 -131 -105 -343 -315 -463 -458 -80 -95 -226 -294 -226 -307 0
-3 -7 -14 -15 -23 -29 -32 -118 -186 -198 -340 -43 -85 -79 -156 -78 -157 0
-2 -8 -23 -19 -48 -11 -25 -19 -46 -18 -48 0 -1 -8 -20 -19 -42 -40 -79 -142
-401 -167 -525 -3 -14 -7 -36 -10 -50 -10 -45 -27 -134 -31 -163 -2 -15 -7
-44 -10 -65 -15 -101 -28 -239 -29 -314 -1 -32 -3 -58 -6 -58 -3 0 -5 -23 -5
-50 0 -28 4 -50 8 -50 5 0 5 -5 1 -12 -11 -17 -11 -138 0 -138 4 0 3 -6 -3
-13 -6 -8 -9 -16 -6 -19 3 -3 8 -50 11 -104 5 -112 12 -209 14 -209 1 0 3 -9
14 -105 7 -54 13 -87 28 -160 6 -30 12 -62 13 -70 1 -8 10 -46 19 -85 20 -83
28 -119 27 -123 -1 -1 6 -16 14 -32 9 -17 13 -30 11 -30 -9 0 84 -259 134
-375 80 -185 136 -294 236 -460 77 -127 78 -128 91 -142 6 -7 22 -29 34 -50
13 -21 29 -45 36 -53 7 -8 26 -33 42 -55 17 -22 34 -44 38 -50 33 -42 101
-123 117 -137 10 -10 16 -18 12 -18 -7 0 307 -314 336 -335 24 -19 123 -100
136 -112 7 -7 17 -13 20 -13 4 0 18 -10 32 -23 29 -27 135 -99 270 -183 81
-51 304 -166 420 -217 96 -42 311 -114 425 -143 17 -4 32 -8 35 -9 358 -91
877 -116 1224 -59 23 4 49 7 59 8 9 0 17 4 17 9 0 4 4 5 10 2 8 -5 93 10 183
31 9 2 25 6 35 8 229 52 519 164 744 289 31 18 76 42 99 55 52 29 239 152 257
169 7 7 17 13 21 13 4 0 16 8 27 18 10 10 37 31 59 47 22 17 46 35 53 42 7 7
34 29 59 50 26 21 61 52 79 68 112 106 167 161 229 230 39 42 80 88 93 101 13
13 21 24 18 24 -2 0 10 16 27 35 54 59 87 102 87 114 0 6 3 11 8 11 4 0 23 24
42 53 19 28 37 54 40 57 10 10 170 267 170 274 0 2 16 32 35 65 19 34 34 62
34 64 0 1 19 45 44 97 62 131 144 341 148 375 0 6 6 19 11 29 9 16 43 123 53
166 1 8 11 44 20 80 9 36 19 76 21 90 3 14 14 70 24 125 19 97 31 188 47 345
4 41 8 192 7 335 0 230 -4 309 -21 445 -2 19 -5 49 -7 65 -2 17 -7 44 -10 60
-4 17 -9 48 -12 70 -3 22 -12 69 -21 105 -8 36 -17 76 -19 90 -3 14 -10 43
-16 65 -6 22 -12 47 -13 55 -2 8 -4 15 -5 15 -1 0 -3 7 -5 15 -3 8 -6 22 -8
30 -2 8 -6 22 -10 30 -3 8 -19 58 -37 110 -32 96 -36 107 -64 172 -9 20 -16
39 -16 42 0 6 -34 83 -81 182 -16 34 -29 67 -29 73 0 6 -3 11 -8 11 -4 0 -13
14 -21 31 -44 101 -243 421 -306 492 -6 7 -33 41 -60 76 -28 36 -57 72 -65 81
-8 9 -35 38 -59 65 -99 114 -284 294 -366 357 -16 12 -35 27 -42 33 -6 5 -23
19 -37 30 -15 11 -32 25 -39 30 -16 14 -177 127 -198 140 -10 6 -43 26 -74 45
-115 70 -348 191 -425 220 -19 7 -39 17 -45 22 -5 4 -15 8 -22 8 -7 0 -32 9
-56 19 -42 19 -73 31 -92 37 -5 2 -48 15 -95 30 -47 14 -121 35 -165 45 -44
11 -89 22 -100 25 -11 3 -27 6 -35 8 -26 4 -104 17 -125 21 -11 2 -20 4 -20 5
0 1 -20 3 -45 5 -25 3 -63 7 -85 10 -105 14 -468 28 -478 19z m293 -1339 c47
-4 94 -9 105 -12 48 -10 64 -13 93 -16 18 -2 35 -7 39 -10 3 -4 14 -7 22 -7
39 0 219 -64 341 -122 261 -124 453 -270 671 -508 125 -137 269 -364 349 -551
17 -41 35 -83 40 -94 23 -52 38 -95 33 -95 -3 0 -1 -6 4 -12 8 -11 23 -53 27
-78 1 -3 7 -24 14 -47 19 -67 31 -115 37 -148 3 -16 9 -52 14 -80 20 -110 25
-188 25 -370 0 -168 -9 -338 -19 -354 -1 -3 -6 -26 -9 -51 -6 -47 -8 -54 -27
-130 -6 -25 -13 -56 -15 -69 -3 -13 -11 -39 -19 -57 -8 -19 -12 -34 -9 -34 2
0 -2 -16 -10 -35 -8 -19 -12 -35 -8 -35 4 0 2 -4 -3 -8 -6 -4 -16 -25 -24 -47
-8 -22 -24 -63 -37 -92 -13 -28 -24 -57 -24 -62 0 -6 -5 -11 -11 -11 -5 0 -8
-4 -4 -9 3 -5 1 -12 -5 -16 -5 -3 -10 -15 -10 -25 0 -10 -4 -20 -8 -22 -4 -1
-24 -32 -43 -68 -78 -141 -274 -410 -300 -410 -5 0 -9 -4 -9 -9 0 -16 -147
-154 -240 -225 -152 -118 -166 -127 -337 -216 -50 -27 -94 -46 -97 -43 -3 4
-6 1 -6 -5 0 -7 -8 -12 -18 -12 -10 0 -22 -3 -26 -7 -3 -4 -12 -8 -19 -9 -7
-2 -32 -10 -57 -19 -25 -9 -52 -19 -60 -21 -8 -2 -48 -12 -87 -23 -40 -10 -73
-17 -73 -14 0 2 -6 1 -12 -4 -7 -4 -21 -8 -30 -9 -10 -1 -19 -2 -20 -4 -2 -1
-16 -3 -33 -5 -16 -1 -61 -6 -100 -10 -152 -17 -363 -8 -515 21 -47 9 -96 18
-109 21 -14 2 -28 6 -33 9 -4 3 -16 7 -25 9 -42 9 -175 56 -237 84 -36 17 -71
31 -76 31 -6 0 -10 3 -10 8 0 4 -17 15 -37 25 -21 9 -56 28 -78 42 -22 14 -50
29 -62 35 -13 5 -23 14 -23 20 0 5 -6 10 -13 10 -7 0 -23 9 -35 20 -12 11 -24
20 -28 20 -33 0 -414 368 -414 400 0 5 -3 10 -8 12 -4 2 -25 28 -47 58 -124
170 -287 486 -309 600 -1 3 -4 10 -8 15 -8 12 -54 193 -63 245 -3 19 -8 42
-10 50 -6 19 -20 126 -30 230 -6 57 -5 330 1 390 14 149 23 207 39 280 15 62
25 114 29 135 1 6 4 15 8 20 3 6 9 26 13 45 4 19 12 41 17 48 6 6 8 12 4 12
-4 0 0 13 9 30 8 16 15 31 14 32 -3 10 81 199 124 278 56 102 154 252 201 307
6 7 20 24 31 38 107 139 287 308 425 400 25 16 47 33 50 36 3 3 32 20 65 39
33 19 63 38 66 43 3 5 8 8 10 7 2 0 49 20 104 45 55 26 109 51 120 56 38 17
135 48 135 42 0 -3 6 -1 13 4 13 11 107 35 192 49 17 3 41 7 55 10 14 2 61 7
105 10 44 4 81 7 82 8 5 4 176 -2 253 -9z"/>
<path d="M0 20654 l0 -3376 30 4 c16 3 30 1 30 -3 0 -4 14 -4 30 1 17 5 30 5
30 0 0 -5 13 -5 30 0 17 5 30 5 30 0 0 -5 13 -5 30 0 17 5 30 5 30 0 0 -5 13
-5 30 0 17 5 30 5 30 0 0 -5 13 -5 30 0 17 5 30 5 30 0 0 -5 13 -5 30 0 17 5
30 5 30 0 0 -5 13 -5 30 0 17 5 30 5 30 0 0 -5 13 -5 30 0 17 5 30 5 30 0 0
-5 13 -5 30 0 17 5 30 5 30 0 0 -5 13 -5 30 0 17 5 30 5 30 0 0 -5 13 -5 30 0
17 5 30 5 30 0 0 -5 13 -5 30 0 17 5 30 5 30 0 0 -5 13 -5 30 0 17 5 30 5 30
0 0 -5 13 -5 30 0 17 5 30 5 30 0 0 -5 12 -5 27 -1 16 4 40 4 56 0 15 -4 27
-3 27 1 0 5 13 5 30 0 17 -5 30 -5 30 0 0 5 13 5 29 0 15 -4 34 -4 42 0 7 5
20 5 29 0 9 -5 22 -5 30 0 8 5 18 6 23 3 12 -7 236 -7 243 0 3 3 17 2 30 -3
14 -6 26 -6 29 0 4 6 13 7 24 1 9 -5 23 -6 31 -1 7 4 24 4 36 0 14 -6 26 -5
29 0 3 6 15 6 30 0 15 -6 27 -6 30 0 3 5 15 6 28 1 12 -5 32 -5 44 0 13 5 25
4 28 -1 3 -6 15 -6 30 0 15 6 27 6 30 -1 4 -5 11 -7 16 -4 12 8 99 12 99 5 0
-6 89 -2 107 4 7 3 15 1 18 -4 3 -6 15 -6 30 0 15 6 25 6 25 0 0 -5 12 -5 30
0 16 5 30 5 30 1 0 -7 86 -5 107 4 7 2 13 1 13 -3 0 -8 219 -6 227 2 3 3 13 1
22 -4 10 -5 23 -5 31 0 8 5 21 5 30 0 9 -5 22 -5 30 0 8 5 21 5 30 0 9 -5 22
-5 30 0 8 5 21 5 29 1 9 -5 25 -5 36 -1 11 4 30 4 43 -1 12 -5 22 -5 22 -1 0
4 21 7 48 8 52 1 212 18 252 27 8 2 38 7 65 12 28 4 55 10 60 14 6 3 15 6 20
6 6 1 30 7 55 14 25 7 53 15 62 16 9 2 25 8 35 13 10 6 21 11 25 11 26 5 199
77 253 106 79 43 141 78 167 96 14 11 31 19 37 19 6 0 11 4 11 8 0 4 20 21 46
37 25 16 54 36 64 44 10 9 38 32 61 51 56 46 193 183 244 244 62 74 156 211
185 271 8 17 18 32 21 35 19 15 108 239 137 345 29 100 48 206 57 310 8 94 3
400 -9 510 -2 17 -6 59 -10 95 -7 66 -25 198 -32 235 -6 32 -18 90 -19 95 -1
3 -5 19 -9 35 -14 57 -67 230 -76 250 -5 11 -21 49 -36 85 -42 98 -110 221
-151 275 -5 6 -24 30 -42 55 -46 60 -201 210 -218 210 -7 0 -13 4 -13 9 0 5
-13 14 -30 21 -16 7 -30 16 -30 21 0 5 -4 9 -10 9 -5 0 -36 13 -67 28 -50 24
-165 66 -185 67 -22 1 -14 15 19 32 21 10 57 31 80 46 24 15 45 27 48 27 8 0
71 57 127 114 76 78 218 306 218 351 0 8 4 15 9 15 5 0 11 10 14 23 3 12 20
74 37 137 17 63 33 131 36 150 3 19 7 40 9 47 17 52 26 409 12 513 -15 117
-33 217 -52 290 -3 14 -7 30 -9 35 -6 25 -18 62 -26 80 -4 11 -20 52 -35 90
-46 123 -171 332 -262 444 -38 46 -180 188 -229 229 -47 39 -193 138 -249 169
-92 51 -248 123 -310 143 -22 7 -46 17 -52 23 -7 5 -13 7 -13 3 0 -3 -12 -1
-27 5 -16 6 -71 21 -123 34 -88 22 -128 30 -205 40 -16 2 -48 7 -70 11 -22 4
-658 9 -1412 11 l-1373 4 0 -3377z m2459 2232 c85 -8 174 -28 226 -51 17 -8
43 -19 59 -24 53 -21 165 -100 219 -156 108 -109 160 -253 161 -440 0 -150
-14 -222 -66 -337 -17 -38 -35 -68 -39 -68 -5 0 -9 -6 -9 -14 0 -23 -150 -169
-221 -214 -64 -41 -189 -93 -259 -107 -34 -7 -367 -18 -445 -15 -22 1 -47 1
-55 1 -8 0 -62 0 -120 0 -58 1 -112 1 -120 0 -8 0 -37 0 -65 0 -69 1 -79 1
-90 -1 -6 -1 -76 -2 -157 -1 l-148 1 0 718 0 717 537 -2 c295 -1 562 -4 592
-7z m381 -2555 c25 -7 50 -14 55 -15 45 -9 212 -88 250 -118 5 -4 44 -34 85
-67 119 -93 190 -179 272 -331 30 -55 76 -186 85 -243 17 -104 5 -353 -19
-417 -5 -14 -8 -25 -7 -25 1 0 -6 -25 -16 -55 -21 -64 -81 -187 -101 -207 -8
-8 -14 -19 -14 -24 0 -5 -9 -19 -19 -31 -11 -13 -29 -34 -41 -48 -48 -56 -88
-96 -119 -120 -18 -14 -38 -30 -44 -35 -23 -20 -113 -73 -162 -95 -78 -35 -97
-42 -152 -55 -10 -2 -36 -9 -57 -14 -22 -5 -44 -8 -48 -5 -4 3 -14 2 -20 -3
-7 -4 -334 -8 -725 -9 l-713 -1 0 969 0 969 733 -4 c556 -2 743 -6 777 -16z"/>
<path d="M5697 24023 c-6 -15 0 -4068 7 -4163 10 -135 13 -170 20 -215 3 -22
8 -56 10 -75 7 -55 35 -198 57 -295 5 -22 11 -50 14 -61 4 -19 65 -205 96
-294 14 -40 43 -107 70 -163 11 -22 19 -42 19 -46 0 -13 133 -256 141 -259 5
-2 9 -10 9 -17 0 -7 12 -27 26 -44 14 -17 22 -31 17 -31 -4 0 -3 -4 3 -8 5 -4
20 -24 33 -45 13 -21 28 -43 35 -50 7 -6 26 -32 43 -57 18 -25 42 -57 55 -71
13 -15 43 -50 67 -79 95 -111 245 -253 373 -353 77 -59 245 -177 253 -177 2 0
36 -19 77 -43 102 -60 158 -86 293 -139 81 -32 245 -87 245 -83 0 3 12 0 28
-6 15 -6 35 -13 45 -15 36 -8 63 -14 97 -20 19 -4 44 -9 55 -11 41 -9 61 -12
110 -18 28 -3 64 -8 80 -11 131 -22 569 -22 705 1 14 2 48 7 75 11 55 7 66 9
140 24 28 6 59 12 70 14 105 20 356 107 483 168 59 28 109 52 112 52 5 1 62
34 100 57 8 5 33 18 55 30 22 12 50 31 63 42 12 11 22 16 22 11 0 -5 4 -4 8 1
4 6 32 28 62 50 72 51 204 159 257 210 23 22 50 47 60 56 21 18 90 95 148 163
22 27 47 56 57 66 9 10 50 67 92 127 42 59 80 113 86 120 5 7 10 14 10 16 0 2
27 51 60 108 33 57 60 108 60 114 0 6 6 17 12 24 7 6 13 15 13 19 1 4 9 21 18
39 9 18 17 39 17 48 0 8 5 15 10 15 6 0 10 8 10 18 0 10 4 22 8 28 5 5 19 38
32 74 13 36 29 79 36 95 13 31 76 229 80 254 3 14 26 117 41 181 3 14 7 34 9
45 1 11 5 29 7 41 5 22 17 106 23 159 1 17 5 50 8 75 3 25 9 79 12 120 3 41 7
998 7 2125 l2 2050 -665 0 -665 0 -2 -2020 c0 -1111 -4 -2049 -7 -2085 -10
-113 -21 -194 -31 -240 -1 -3 -7 -32 -15 -65 -7 -33 -14 -64 -15 -70 0 -5 -10
-39 -22 -75 -102 -312 -248 -534 -470 -713 -39 -32 -75 -57 -82 -57 -6 0 -11
-3 -11 -7 0 -26 -229 -129 -360 -163 -74 -20 -79 -21 -200 -36 -71 -8 -267 -9
-348 0 -118 12 -279 52 -367 90 -81 36 -110 51 -115 57 -3 3 -23 15 -45 27
-22 11 -58 34 -80 51 -22 17 -52 40 -67 52 -56 42 -188 184 -216 232 -9 15
-20 27 -24 27 -4 0 -8 7 -8 15 0 8 -4 15 -8 15 -5 0 -15 12 -23 28 -8 15 -17
29 -20 32 -13 11 -119 239 -144 310 -53 153 -91 341 -101 500 -4 58 -7 1004
-7 2103 l-1 1997 -662 0 c-365 0 -664 -3 -667 -7z"/>
<path d="M12015 24021 c-3 -5 1 -16 9 -24 8 -7 29 -38 47 -68 18 -30 38 -57
43 -61 6 -4 8 -8 4 -8 -4 0 15 -34 42 -75 28 -41 50 -79 50 -85 0 -5 5 -10 10
-10 6 0 10 -5 10 -10 0 -6 5 -16 10 -23 19 -22 210 -329 210 -337 0 -5 4 -10
8 -12 5 -1 28 -34 51 -73 47 -78 64 -106 241 -385 67 -107 132 -211 144 -230
11 -19 24 -36 28 -38 4 -2 8 -9 8 -16 0 -7 8 -21 18 -32 9 -11 24 -32 32 -47
18 -32 284 -456 375 -597 12 -19 56 -88 96 -153 41 -65 92 -147 114 -182 22
-35 60 -96 85 -137 24 -40 48 -74 52 -76 5 -2 8 -10 8 -18 0 -8 5 -14 10 -14
6 0 10 -5 10 -10 0 -6 18 -38 40 -71 22 -33 40 -63 40 -65 0 -3 10 -20 23 -37
12 -18 27 -41 34 -52 6 -11 58 -93 115 -182 57 -89 107 -172 113 -183 5 -11
13 -20 17 -20 5 0 8 -5 8 -10 0 -12 52 -94 63 -98 4 -2 7 -9 7 -16 0 -7 9 -23
20 -36 11 -13 20 -29 20 -37 0 -7 5 -13 10 -13 6 0 10 -6 10 -14 0 -8 3 -16 8
-18 4 -1 24 -31 45 -65 l37 -62 3 -1518 c2 -1439 3 -1518 20 -1517 9 1 17 -2
17 -6 0 -5 14 -5 30 0 17 5 30 5 30 0 0 -5 13 -5 30 0 17 5 30 5 30 0 0 -5 13
-5 30 0 17 5 30 5 30 0 0 -5 13 -5 30 0 17 5 30 5 30 0 0 -5 13 -5 30 0 17 5
30 5 30 0 0 -5 13 -5 30 0 17 5 30 5 30 0 0 -5 13 -5 30 0 17 5 30 5 30 0 0
-5 13 -5 30 0 17 5 30 5 30 0 0 -5 13 -5 30 0 17 5 30 5 30 0 0 -5 13 -5 30 0
17 5 30 5 30 0 0 -5 12 -5 28 -1 15 4 39 4 55 0 15 -4 27 -3 27 1 0 5 14 5 30
0 17 -5 30 -5 30 0 0 5 13 5 29 0 15 -4 34 -4 42 0 7 5 20 5 29 0 8 -4 22 -4
31 0 8 5 20 5 27 1 7 -4 35 -4 62 -1 28 4 50 3 50 -1 0 -4 14 -4 30 1 17 5 30
6 30 2 0 -4 43 -7 95 -7 l95 0 1 40 c0 22 0 708 0 1523 l0 1484 92 146 c51 81
95 149 100 150 4 2 7 8 7 12 0 5 14 29 30 53 17 25 30 49 30 55 0 5 7 16 16
23 9 7 20 22 25 34 5 11 17 32 27 46 9 15 39 62 66 105 26 44 51 81 55 84 3 3
15 21 25 40 11 19 37 61 58 93 21 32 38 61 38 63 0 3 11 20 25 38 14 18 25 36
25 40 0 4 11 22 25 40 14 18 25 36 25 40 0 3 15 28 33 54 17 26 37 57 44 67
47 79 290 462 299 472 6 6 17 25 24 42 7 17 16 31 21 31 5 0 9 5 9 11 0 6 14
31 30 56 17 24 30 48 30 53 0 4 3 10 8 12 10 4 122 184 122 196 0 6 4 12 8 14
5 2 72 104 149 228 78 124 145 230 150 235 5 6 12 17 16 25 4 8 15 27 25 42 9
16 50 81 91 145 41 65 94 148 118 185 24 37 43 70 43 73 0 3 5 11 10 18 20 23
80 119 80 128 0 5 5 9 10 9 6 0 10 5 10 10 0 6 23 44 50 86 28 41 50 77 50 80
0 8 55 89 63 92 4 2 7 7 7 12 0 9 118 200 145 235 8 10 15 23 15 27 0 4 -352
8 -782 8 l-783 0 -22 -33 c-11 -17 -92 -144 -178 -282 -86 -137 -169 -267
-183 -289 -15 -21 -31 -47 -37 -57 -5 -10 -46 -75 -90 -145 -44 -69 -87 -138
-96 -152 -9 -15 -69 -109 -133 -210 -64 -100 -116 -187 -116 -192 0 -6 -4 -10
-9 -10 -5 0 -15 -12 -22 -27 -8 -16 -26 -46 -40 -68 -23 -35 -96 -151 -139
-219 -8 -14 -35 -58 -60 -98 -24 -40 -47 -75 -50 -78 -3 -3 -39 -59 -80 -125
-41 -66 -77 -122 -81 -125 -3 -3 -9 -15 -13 -27 -4 -13 -12 -23 -17 -23 -5 0
-9 -4 -9 -9 0 -5 -12 -28 -27 -50 l-26 -41 -34 51 c-18 28 -33 52 -33 54 0 5
-87 138 -99 152 -6 7 -11 15 -11 18 0 3 -18 33 -40 66 -22 33 -40 65 -40 70 0
5 -4 9 -10 9 -5 0 -10 5 -10 12 0 6 -11 26 -25 44 -14 18 -30 43 -35 56 -9 19
-32 55 -67 104 -7 9 -14 20 -45 76 -7 12 -18 28 -25 35 -6 7 -26 39 -44 70
-18 32 -37 63 -41 68 -20 23 -138 216 -138 225 0 4 -3 10 -8 12 -6 2 -42 57
-117 179 -5 9 -19 29 -29 45 -57 86 -86 135 -86 143 0 5 -3 11 -8 13 -8 3
-112 165 -112 174 0 3 -5 10 -10 17 -21 24 -130 198 -130 208 0 5 -4 9 -10 9
-5 0 -10 4 -10 10 0 8 -27 51 -110 180 -6 8 -31 48 -56 88 l-46 72 -778 0
c-463 0 -781 -4 -785 -9z"/>
<path d="M18595 20662 c0 -1852 4 -3372 8 -3379 5 -8 17 -9 37 -3 17 5 30 6
30 2 0 -8 68 -7 76 1 3 3 17 2 30 -3 14 -6 26 -6 29 0 4 6 13 7 24 1 9 -5 23
-6 31 -1 7 4 24 4 36 0 14 -6 26 -5 29 0 3 6 15 6 30 0 15 -6 27 -6 30 0 3 5
15 6 28 1 12 -5 32 -5 44 0 13 5 25 4 28 -1 3 -6 15 -6 30 0 15 6 27 6 30 -1
4 -5 11 -7 16 -4 13 9 99 11 99 3 0 -4 14 -3 30 2 17 5 30 5 30 0 0 -5 13 -5
30 0 17 5 30 5 30 0 0 -5 13 -5 30 0 17 5 30 5 30 0 0 -5 13 -5 30 0 17 5 30
5 30 0 0 -5 13 -5 30 0 17 5 30 5 30 0 0 -5 13 -5 30 0 17 5 30 5 30 0 0 -5
13 -5 30 0 17 5 30 5 30 0 0 -5 13 -5 30 0 17 5 30 5 30 0 0 -5 13 -5 30 0 17
5 30 5 30 0 0 -5 13 -5 30 0 18 5 30 5 30 0 0 -6 10 -6 23 -1 12 4 27 6 33 4
8 -3 11 604 10 2162 -1 1191 2 2164 6 2162 6 -2 112 -171 161 -257 10 -19 28
-47 38 -62 11 -14 19 -29 19 -33 0 -3 14 -26 30 -50 17 -24 30 -48 30 -54 0
-6 4 -11 9 -11 5 0 12 -8 15 -17 11 -30 43 -83 62 -104 9 -10 13 -19 9 -19 -4
0 -1 -8 7 -17 13 -15 173 -276 229 -373 8 -14 16 -27 19 -30 3 -3 12 -18 20
-35 8 -16 18 -34 23 -40 15 -21 57 -86 57 -90 0 -3 16 -29 35 -59 19 -30 35
-59 35 -64 0 -5 7 -16 16 -23 9 -7 19 -20 23 -29 5 -13 165 -280 213 -358 10
-15 27 -43 38 -62 11 -19 29 -48 40 -65 11 -16 23 -37 27 -45 4 -8 28 -49 55
-91 26 -42 48 -81 48 -87 0 -7 5 -12 10 -12 6 0 10 -7 10 -15 0 -8 5 -15 10
-15 6 0 10 -4 10 -10 0 -9 88 -158 100 -170 3 -3 14 -21 24 -40 10 -19 32 -54
48 -78 15 -24 28 -44 28 -46 0 -5 66 -113 78 -129 5 -7 20 -32 33 -57 13 -25
27 -47 30 -50 3 -3 32 -50 65 -105 32 -55 62 -101 66 -103 5 -2 8 -8 8 -13 0
-6 15 -33 33 -62 18 -29 36 -59 40 -67 4 -8 21 -35 37 -60 17 -25 36 -59 44
-76 8 -17 22 -36 30 -43 9 -7 14 -17 11 -21 -3 -5 -1 -11 4 -15 6 -3 49 -70
96 -148 47 -78 90 -149 95 -157 5 -8 23 -37 38 -65 16 -27 52 -87 81 -133 28
-46 51 -87 51 -92 0 -5 3 -10 8 -12 4 -1 47 -70 97 -153 49 -82 102 -169 117
-191 15 -23 24 -44 21 -48 -4 -3 -2 -6 3 -6 5 0 17 -13 27 -29 15 -26 67 -49
67 -30 0 4 14 4 30 -1 18 -5 30 -5 30 0 0 6 10 6 25 0 15 -6 27 -6 30 0 3 6
15 6 30 0 15 -6 27 -6 30 0 3 6 15 6 30 0 14 -5 27 -5 30 0 3 5 18 5 35 0 17
-5 30 -5 30 0 0 5 13 5 30 0 17 -5 30 -5 30 0 0 5 10 6 21 1 12 -4 41 -4 65
-1 24 4 44 3 44 -1 0 -4 14 -4 30 1 17 5 30 5 30 0 0 -5 13 -5 30 0 17 5 30 5
30 0 0 -5 13 -5 30 0 17 5 30 5 30 0 0 -5 13 -5 30 0 17 5 30 5 30 0 0 -5 13
-5 30 0 17 5 30 5 30 0 0 -5 13 -5 30 0 17 5 30 5 30 0 0 -5 13 -5 30 0 17 5
30 5 30 0 0 -5 13 -5 30 0 17 5 30 5 30 0 0 -5 13 -5 30 0 17 5 30 5 30 0 0
-5 13 -5 30 0 17 5 30 5 30 0 0 -5 13 -5 30 0 17 5 30 5 30 0 0 -5 13 -5 30 0
17 5 30 5 30 0 0 -5 13 -5 30 0 17 5 30 6 30 2 0 -4 17 -6 37 -5 21 1 47 2 58
2 20 1 21 6 20 197 0 108 3 198 7 201 5 2 5 10 1 16 -10 16 -10 618 0 624 4 3
4 10 -1 16 -10 15 -10 757 1 774 4 6 4 14 -1 17 -10 6 -9 86 1 103 4 6 4 14 0
16 -10 7 -10 808 0 824 4 6 4 14 -1 17 -9 6 -9 136 1 152 3 6 3 14 -1 18 -9
10 -9 617 1 623 4 3 4 10 -1 16 -10 15 -10 757 1 774 4 6 4 14 -1 17 -10 6 -9
86 1 103 4 6 4 14 0 16 -10 7 -10 808 0 824 4 6 4 14 -1 17 -9 6 -9 136 1 152
3 6 3 14 -1 18 -9 10 -9 617 1 623 4 2 4 10 0 16 -4 7 -8 138 -8 292 l0 280
-659 3 c-390 1 -662 -2 -665 -7 -3 -5 -6 -977 -6 -2161 0 -1183 -3 -2154 -7
-2156 -5 -3 -8 2 -8 10 0 9 -3 16 -7 16 -5 0 -24 29 -43 65 -19 36 -38 65 -42
65 -5 0 -8 4 -8 9 0 4 -54 97 -120 206 -66 109 -120 201 -120 206 0 4 -4 9 -8
11 -5 2 -23 30 -42 63 -18 33 -36 62 -39 65 -4 3 -15 23 -26 45 -11 22 -24 43
-28 46 -4 3 -15 20 -25 36 -9 17 -80 135 -157 262 -77 127 -148 245 -159 263
-10 18 -21 35 -25 38 -3 3 -13 19 -21 35 -17 35 -85 144 -100 162 -5 7 -10 14
-10 17 0 2 -50 87 -111 188 -62 101 -121 199 -131 218 -11 19 -27 43 -36 53
-8 9 -11 17 -6 17 5 0 4 4 -2 8 -5 4 -47 68 -91 142 -45 74 -106 176 -137 225
-31 50 -59 97 -63 105 -6 14 -49 84 -91 150 -9 14 -17 27 -17 30 0 3 -16 30
-36 60 -57 88 -99 161 -99 170 0 5 -3 10 -7 12 -5 2 -66 100 -138 218 -71 118
-153 253 -183 300 -29 47 -58 97 -65 113 -6 15 -15 27 -19 27 -4 0 -8 5 -8 11
0 6 -12 29 -27 52 -37 55 -49 75 -73 117 -11 19 -26 44 -33 54 -52 83 -84 135
-94 156 -7 14 -31 54 -54 90 -23 36 -50 81 -61 100 -11 19 -29 47 -40 63 l-19
27 -717 0 -717 0 0 -3368z"/>
<path d="M32094 24003 c4 -16 11 -46 17 -68 5 -22 14 -56 18 -75 5 -19 16 -60
24 -91 9 -30 17 -66 19 -80 2 -13 6 -28 10 -34 3 -5 9 -23 12 -40 12 -55 15
-69 41 -165 14 -52 27 -108 30 -124 3 -16 8 -33 11 -38 3 -5 7 -19 10 -33 2
-13 22 -93 45 -177 22 -84 42 -164 45 -178 3 -14 7 -32 9 -40 2 -8 4 -17 5
-20 1 -3 3 -9 4 -15 4 -19 18 -70 23 -85 7 -18 10 -27 16 -60 3 -14 13 -54 22
-90 9 -36 19 -72 21 -80 2 -8 10 -42 19 -75 8 -33 18 -71 20 -85 6 -26 30
-114 46 -166 5 -17 9 -39 9 -51 0 -11 3 -23 7 -27 4 -3 8 -12 9 -19 5 -30 16
-73 54 -222 23 -88 43 -167 45 -175 2 -8 8 -35 15 -60 7 -25 14 -52 15 -60 2
-8 18 -69 35 -135 17 -66 33 -127 35 -135 1 -8 17 -69 34 -135 17 -66 33 -129
36 -140 2 -11 11 -47 20 -80 9 -33 18 -67 20 -75 3 -12 46 -182 61 -240 2 -8
13 -51 24 -95 20 -78 24 -90 36 -137 3 -13 9 -39 14 -58 4 -19 12 -47 18 -61
6 -15 8 -29 6 -32 -3 -3 -1 -14 5 -24 5 -11 12 -33 15 -49 2 -16 5 -29 6 -29
1 0 3 -7 5 -15 1 -8 11 -44 20 -80 9 -36 18 -72 20 -80 2 -8 33 -132 70 -275
61 -236 71 -278 78 -310 2 -5 6 -16 10 -22 5 -7 6 -13 3 -13 -2 0 2 -24 10
-52 8 -29 16 -60 18 -68 2 -8 12 -44 21 -80 9 -36 18 -72 20 -80 2 -8 22 -87
45 -175 23 -88 46 -178 51 -200 11 -44 24 -96 34 -135 3 -14 7 -29 8 -35 2 -5
6 -16 10 -22 5 -7 6 -13 3 -13 -2 0 4 -29 14 -65 10 -36 19 -67 20 -70 0 -3 3
-10 5 -17 2 -7 6 -24 8 -38 2 -14 6 -32 10 -40 4 -13 16 -59 32 -130 2 -8 20
-78 40 -155 19 -77 37 -147 38 -155 1 -8 5 -19 8 -25 6 -9 21 -72 24 -100 1
-5 8 -30 15 -55 7 -25 15 -52 16 -60 2 -8 19 -76 39 -152 19 -75 35 -139 35
-143 0 -4 11 -5 25 -3 14 3 28 1 31 -4 3 -4 10 -6 15 -3 12 8 99 12 99 5 0 -6
89 -2 107 4 7 3 15 1 18 -4 3 -6 15 -6 30 0 15 6 25 6 25 0 0 -5 12 -5 30 0
17 5 30 5 30 1 0 -7 86 -5 108 4 6 2 12 1 12 -3 0 -8 204 -7 224 1 7 3 19 1
26 -3 8 -5 21 -5 30 0 9 5 22 5 30 0 8 -5 21 -5 30 0 9 5 22 5 30 0 8 -5 21
-5 30 0 9 5 22 5 30 0 8 -5 21 -5 30 0 9 5 22 5 30 0 8 -5 21 -5 30 0 9 5 22
5 30 0 8 -5 21 -5 30 0 9 5 22 5 30 0 8 -5 21 -5 30 0 9 5 22 5 30 0 7 -4 24
-4 36 0 14 6 26 5 29 0 3 -6 15 -6 29 0 13 5 27 6 30 3 8 -8 102 -7 116 2 5 3
10 2 10 -3 0 -5 11 -7 25 -4 27 5 41 23 49 63 3 13 19 78 36 144 17 66 32 127
34 135 2 8 9 33 14 55 6 22 13 51 16 65 3 14 15 61 27 105 12 44 22 86 22 93
0 6 3 12 7 12 3 0 6 8 6 18 1 9 4 28 7 42 3 14 8 34 10 45 3 11 13 49 22 85 9
36 19 76 22 89 2 14 6 28 9 33 5 8 10 28 20 78 3 14 9 39 14 55 11 35 107 411
114 446 3 13 24 96 47 184 22 88 43 167 44 175 2 8 4 15 5 15 1 0 3 8 5 18 2
10 15 64 30 120 15 56 29 113 32 127 2 14 13 56 24 95 11 38 22 81 24 95 4 20
44 175 59 225 1 6 7 28 11 50 5 22 10 42 10 45 1 3 5 19 9 35 4 17 12 41 16
55 5 14 11 39 14 55 2 17 9 42 14 56 6 14 12 39 15 55 3 16 12 58 22 94 9 36
19 72 20 80 2 8 9 31 15 50 6 19 13 51 16 70 3 19 11 41 16 48 6 6 8 12 5 12
-3 0 1 24 9 53 8 28 17 63 19 77 3 14 16 68 30 120 14 52 27 109 30 125 7 32
21 54 23 33 0 -12 98 -395 157 -618 14 -52 27 -104 30 -115 2 -11 16 -65 30
-120 15 -55 30 -116 35 -135 16 -69 41 -166 51 -200 6 -19 12 -44 14 -55 2
-11 4 -20 5 -20 1 0 3 -7 5 -15 2 -8 10 -43 19 -77 28 -110 47 -188 51 -203
16 -70 108 -416 115 -434 5 -13 6 -26 4 -29 -3 -3 -1 -14 4 -24 6 -10 12 -31
16 -48 3 -16 14 -64 25 -105 17 -66 116 -450 126 -490 2 -8 11 -42 20 -75 9
-33 18 -71 21 -85 3 -14 8 -34 11 -45 4 -11 7 -22 8 -25 1 -3 4 -18 8 -35 4
-16 9 -39 12 -50 2 -11 22 -90 45 -175 22 -85 42 -164 45 -175 2 -11 9 -38 15
-60 6 -22 19 -74 29 -115 23 -92 51 -193 55 -197 7 -7 96 -8 96 -2 0 4 14 4
30 -1 17 -5 30 -5 30 0 0 5 13 5 30 0 17 -5 30 -5 30 0 0 5 13 5 30 0 17 -5
30 -5 30 0 0 5 13 5 30 0 17 -5 30 -5 30 0 0 5 13 5 30 0 17 -5 30 -5 30 0 0
5 12 5 28 1 15 -5 37 -5 49 0 12 4 25 4 28 -1 3 -5 18 -5 35 0 17 5 30 5 30 0
0 -5 13 -5 30 0 17 5 30 5 30 0 0 -5 13 -5 30 0 17 5 30 5 30 0 0 -5 13 -5 30
0 17 5 30 5 30 0 0 -5 13 -5 30 0 17 5 30 5 30 0 0 -5 13 -5 30 0 17 5 30 5
30 0 0 -5 13 -5 30 0 17 5 30 5 30 0 0 -5 13 -5 30 0 17 5 30 5 30 0 0 -5 13
-5 30 0 17 5 30 5 30 0 0 -5 13 -5 30 0 17 5 30 5 30 1 0 -4 27 -4 60 -1 33 3
60 3 60 -1 0 -4 14 -4 30 1 17 5 30 6 30 2 0 -4 16 -7 35 -7 19 0 35 3 35 7 0
4 14 3 30 -2 17 -5 30 -5 30 0 0 5 14 5 31 0 24 -7 34 -5 50 11 10 10 19 31
19 45 0 14 4 33 9 42 5 9 12 31 15 47 3 17 19 84 37 150 17 66 32 127 34 135
2 8 18 71 35 140 18 69 34 136 36 149 3 14 8 29 11 35 4 6 8 19 9 31 3 19 35
146 105 415 17 63 32 124 33 135 2 11 6 27 9 35 5 12 80 306 92 360 3 12 53
208 69 270 10 39 68 267 71 280 2 8 27 105 55 215 28 110 54 211 56 225 3 14
7 32 10 40 5 13 59 224 69 270 2 8 13 51 25 95 22 82 27 102 34 133 22 92 29
120 37 142 4 14 11 36 13 50 3 14 32 133 66 265 62 239 66 257 75 295 2 12 13
54 24 94 11 41 23 88 26 104 3 17 9 42 15 56 5 15 7 26 4 26 -4 0 -1 6 5 14 6
8 11 18 10 22 -1 5 0 11 1 14 2 5 4 16 14 55 2 11 10 40 16 65 6 25 13 54 15
65 2 11 4 22 6 25 1 3 3 10 4 15 1 6 4 17 7 25 3 8 15 56 27 105 12 50 26 104
31 120 8 25 51 197 65 258 2 10 7 27 10 37 3 10 8 27 10 37 5 26 52 209 69
273 8 30 17 66 20 80 3 14 9 40 15 58 5 18 10 35 10 37 1 3 1 6 2 8 1 3 7 28
12 52 23 95 30 123 38 145 4 14 11 36 13 50 3 14 30 124 61 245 31 121 59 228
61 238 2 9 6 25 8 35 2 9 22 87 44 172 22 85 42 167 46 183 l6 27 -687 -2
-687 -3 -37 -145 c-20 -80 -35 -147 -33 -149 2 -2 -1 -9 -6 -16 -5 -6 -12 -29
-16 -51 -3 -21 -8 -42 -11 -46 -2 -5 -6 -16 -8 -26 -1 -9 -8 -37 -15 -62 -7
-25 -14 -53 -16 -63 -2 -10 -6 -27 -9 -37 -3 -10 -8 -28 -10 -39 -3 -12 -7
-29 -10 -38 -6 -25 -26 -105 -30 -123 -2 -8 -4 -15 -5 -15 -1 0 -3 -9 -5 -20
-3 -16 -48 -190 -101 -390 -4 -16 -8 -32 -9 -35 0 -3 -5 -23 -10 -45 -10 -47
-12 -54 -15 -57 -1 -2 -3 -10 -5 -18 -2 -8 -8 -35 -14 -60 -7 -25 -13 -53 -16
-63 -2 -10 -7 -27 -10 -37 -3 -10 -7 -27 -9 -37 -12 -58 -57 -230 -65 -243 -4
-8 -7 -23 -5 -32 1 -10 -2 -18 -7 -18 -6 0 -8 -4 -5 -9 4 -5 2 -21 -4 -35 -5
-15 -12 -39 -15 -54 -4 -25 -38 -156 -91 -356 -13 -49 -21 -93 -18 -97 3 -5 1
-9 -4 -9 -5 0 -9 -6 -10 -12 0 -7 -3 -23 -6 -35 -3 -13 -8 -31 -10 -40 -2 -10
-16 -65 -31 -123 -15 -58 -28 -109 -29 -115 -1 -5 -5 -16 -9 -22 -5 -7 -6 -13
-3 -13 2 0 -2 -24 -10 -52 -8 -29 -16 -60 -19 -68 -2 -8 -31 -123 -64 -255
-34 -132 -63 -247 -65 -255 -2 -8 -21 -80 -41 -160 -35 -138 -39 -156 -49
-197 -2 -10 -16 -63 -31 -118 -14 -55 -28 -108 -30 -119 -2 -10 -16 -64 -31
-120 -14 -55 -28 -112 -31 -126 -4 -26 -22 -52 -24 -34 -1 19 -9 54 -49 209
-41 156 -57 222 -66 258 -2 9 -6 25 -9 35 -18 69 -26 100 -30 117 -2 11 -6 29
-9 40 -16 56 -106 407 -111 435 -3 14 -8 32 -11 40 -3 8 -8 24 -10 35 -2 11
-29 117 -59 235 -31 118 -58 224 -60 235 -3 11 -7 29 -9 40 -13 53 -38 152
-43 165 -3 8 -7 24 -9 35 -2 11 -8 36 -13 55 -22 83 -33 124 -36 139 -2 9 -13
52 -24 96 -12 44 -24 88 -26 98 -3 9 -7 25 -9 35 -8 32 -27 107 -31 125 -3 9
-7 25 -9 35 -8 34 -25 100 -65 256 -23 87 -43 168 -46 180 -2 12 -11 45 -19
74 -8 28 -12 52 -9 52 3 0 0 7 -7 15 -7 8 -10 15 -6 15 3 0 1 12 -5 28 -6 15
-14 45 -19 67 -4 22 -29 121 -55 220 -26 99 -48 188 -50 198 -2 10 -7 27 -10
37 -3 10 -7 27 -9 37 -2 10 -9 36 -15 58 -6 22 -10 42 -11 45 0 3 -6 28 -14
55 -8 28 -17 61 -20 75 -3 14 -17 70 -31 125 -14 55 -27 107 -29 115 -2 8 -6
22 -9 30 -3 8 -8 29 -12 45 -3 17 -11 47 -16 68 l-10 37 -609 0 -609 0 -12
-42 c-14 -47 -15 -51 -22 -88 -3 -14 -13 -52 -23 -85 -9 -33 -18 -69 -19 -80
-2 -11 -4 -20 -5 -20 -1 0 -3 -7 -5 -15 -2 -8 -15 -60 -30 -115 -14 -55 -29
-111 -31 -125 -3 -14 -19 -77 -36 -140 -16 -63 -32 -123 -33 -133 -2 -10 -13
-51 -24 -91 -11 -40 -22 -83 -24 -97 -6 -32 -27 -110 -34 -129 -3 -8 -7 -22
-8 -30 -3 -15 -5 -23 -25 -100 -6 -25 -13 -54 -15 -65 -2 -11 -4 -22 -6 -25
-1 -3 -3 -9 -4 -15 -1 -5 -4 -17 -8 -25 -6 -18 -56 -215 -63 -250 -3 -14 -12
-50 -20 -80 -9 -30 -17 -59 -19 -65 -1 -5 -6 -28 -10 -50 -12 -55 -12 -55 -15
-57 -1 -2 -3 -10 -5 -18 -2 -8 -6 -24 -9 -35 -2 -11 -16 -63 -30 -115 -14 -53
-27 -108 -30 -123 -2 -15 -7 -30 -10 -35 -3 -5 -7 -19 -9 -33 -3 -13 -13 -53
-22 -89 -10 -36 -19 -72 -20 -80 -1 -8 -8 -35 -14 -60 -7 -25 -15 -52 -16 -60
-2 -8 -13 -51 -25 -95 -12 -44 -23 -89 -26 -100 -11 -52 -35 -147 -41 -165 -3
-8 -8 -24 -10 -34 -2 -10 -13 -55 -24 -100 -12 -45 -23 -88 -25 -96 -2 -8 -13
-53 -25 -100 -11 -47 -23 -92 -25 -100 -2 -8 -8 -31 -13 -50 -48 -183 -134
-520 -137 -540 -3 -14 -7 -32 -10 -40 -3 -8 -8 -26 -10 -40 -3 -14 -9 -36 -14
-50 -13 -37 -48 -182 -49 -207 -2 -30 -17 -9 -29 40 -8 28 -15 57 -16 62 -2 6
-6 28 -11 50 -4 22 -10 45 -14 50 -3 6 -7 21 -9 35 -1 14 -5 32 -9 40 -8 18
-7 17 -16 60 -4 19 -7 37 -6 40 0 3 -4 17 -10 33 -6 15 -13 38 -15 50 -3 12
-21 85 -41 162 -20 77 -43 169 -51 205 -9 36 -18 72 -20 80 -3 8 -6 17 -6 20
0 3 -9 34 -19 70 -10 36 -20 76 -23 90 -3 14 -13 52 -21 85 -9 33 -17 67 -20
76 -2 9 -13 52 -24 95 -12 44 -23 88 -25 99 -1 11 -5 27 -8 35 -17 44 -37 134
-32 141 3 5 0 9 -6 9 -7 0 -10 6 -7 14 3 8 3 17 -1 20 -3 4 -7 12 -8 19 -1 7
-12 50 -23 97 -12 47 -23 92 -25 100 -2 8 -23 87 -46 175 -23 88 -43 167 -45
175 -2 8 -15 62 -30 120 -15 58 -28 113 -30 123 -2 9 -6 20 -8 25 -3 4 -8 24
-11 45 -3 21 -11 47 -16 58 -6 10 -9 19 -6 19 3 0 0 15 -5 33 -6 17 -12 39
-14 47 -2 8 -9 35 -15 60 -6 25 -15 61 -20 80 -4 19 -11 45 -14 58 -3 12 -9
32 -12 45 -3 12 -9 38 -14 57 -4 19 -22 86 -38 148 -17 62 -31 115 -31 117 -1
3 -3 10 -5 17 -4 12 -23 95 -30 129 -2 8 -6 21 -9 29 -3 8 -26 98 -51 200 -26
102 -67 264 -91 360 -25 96 -47 184 -50 195 -3 11 -8 36 -13 55 l-8 35 -688 3
-688 2 6 -27z"/>
</g>
</svg>
