<svg width="58" height="46" viewBox="0 0 58 46" fill="none" xmlns="http://www.w3.org/2000/svg">
<path d="M17.9447 32.7826L18.6598 33.5139L19.3748 32.7826L49.217 2.26053C50.0965 1.42836 51.2519 0.979272 52.4413 1.00074C53.6363 1.0223 54.7811 1.51732 55.633 2.38869C56.4857 3.26076 56.9778 4.44177 56.9993 5.68411C57.0206 6.92076 56.5737 8.11394 55.7583 9.01529L21.9309 43.6134C21.059 44.504 19.882 45 18.6598 45C17.4375 45 16.2605 44.504 15.3886 43.6134L2.24169 30.1669C1.42635 29.2656 0.979396 28.0724 1.00073 26.8357C1.02216 25.5934 1.51434 24.4124 2.36698 23.5403C3.21894 22.6689 4.36368 22.1739 5.55868 22.1523C6.74814 22.1309 7.90358 22.58 8.78305 23.4122L17.9447 32.7826Z" stroke="#929292" stroke-width="2"/>
</svg>
