<svg width="25" height="26" viewBox="0 0 25 26" fill="none" xmlns="http://www.w3.org/2000/svg">
<circle cx="12.5" cy="13" r="12.5" fill="#0EB100"/>
<path fill-rule="evenodd" clip-rule="evenodd" d="M20.7933 8.39982C21.0939 8.07295 21.2575 7.64061 21.2497 7.1939C21.242 6.74718 21.0634 6.32097 20.7516 6.00504C20.4398 5.68912 20.0191 5.50815 19.5783 5.50027C19.1374 5.49239 18.7107 5.6582 18.3881 5.96279L9.3801 15.0902L6.6119 12.2853C6.2893 11.9807 5.86262 11.8149 5.42174 11.8228C4.98087 11.8306 4.56023 12.0116 4.24844 12.3275C3.93664 12.6435 3.75804 13.0697 3.75027 13.5164C3.74249 13.9631 3.90614 14.3954 4.20673 14.7223L8.17752 18.7457C8.4966 19.0686 8.92913 19.25 9.3801 19.25C9.83107 19.25 10.2636 19.0686 10.5827 18.7457L20.7933 8.39982Z" fill="white"/>
</svg>
