<svg width="18" height="15" viewBox="0 0 18 15" fill="none" xmlns="http://www.w3.org/2000/svg">
<path d="M0.636048 6.79315C0.448577 6.98067 0.343262 7.23498 0.343262 7.50015C0.343262 7.76531 0.448577 8.01962 0.636048 8.20715L6.29305 13.8641C6.3853 13.9597 6.49564 14.0358 6.61764 14.0882C6.73965 14.1407 6.87087 14.1682 7.00365 14.1694C7.13643 14.1705 7.26811 14.1452 7.391 14.095C7.5139 14.0447 7.62555 13.9704 7.71944 13.8765C7.81334 13.7826 7.88759 13.671 7.93787 13.5481C7.98815 13.4252 8.01345 13.2935 8.0123 13.1607C8.01115 13.028 7.98356 12.8967 7.93115 12.7747C7.87874 12.6527 7.80256 12.5424 7.70705 12.4501L3.75705 8.50015H17C17.2653 8.50015 17.5196 8.39479 17.7072 8.20725C17.8947 8.01972 18 7.76536 18 7.50015C18 7.23493 17.8947 6.98058 17.7072 6.79304C17.5196 6.6055 17.2653 6.50015 17 6.50015L3.75705 6.50015L7.70705 2.55014C7.88921 2.36154 7.99 2.10894 7.98772 1.84674C7.98544 1.58455 7.88027 1.33373 7.69487 1.14833C7.50946 0.962919 7.25865 0.857749 6.99645 0.855471C6.73425 0.853192 6.48165 0.953987 6.29305 1.13614L0.636048 6.79315Z" fill="black"/>
</svg>
