<svg width="15" height="18" viewBox="0 0 15 18" fill="none" xmlns="http://www.w3.org/2000/svg">
<path fill-rule="evenodd" clip-rule="evenodd" d="M7.22896 11.681H6.93754C4.93472 11.681 3.31131 10.0771 3.31131 8.10011V4.24739C3.31131 2.26961 4.93472 0.666504 6.93754 0.666504H7.22896C9.23178 0.666504 10.856 2.26961 10.856 4.24739V8.10011C10.856 10.0771 9.23178 11.681 7.22896 11.681ZM12.5521 7.98556C12.5521 7.54472 12.9138 7.18839 13.3594 7.18839C13.805 7.18839 14.1667 7.54472 14.1667 7.98556C14.1667 11.572 11.4171 14.5335 7.891 14.9313V16.536C7.891 16.976 7.52935 17.3332 7.08374 17.3332C6.63732 17.3332 6.27647 16.976 6.27647 16.536V14.9313C2.74954 14.5335 0 11.572 0 7.98556C0 7.54472 0.361654 7.18839 0.807263 7.18839C1.25287 7.18839 1.61453 7.54472 1.61453 7.98556C1.61453 10.963 4.0678 13.3856 7.08374 13.3856C10.0989 13.3856 12.5521 10.963 12.5521 7.98556Z" fill="#6949FF"/>
</svg>
