<svg width="43" height="47" viewBox="0 0 43 47" fill="none" xmlns="http://www.w3.org/2000/svg">
<mask id="mask0_255_21" style="mask-type:luminance" maskUnits="userSpaceOnUse" x="0" y="0" width="44" height="47">
<path fill-rule="evenodd" clip-rule="evenodd" d="M0.416504 0.416504H43.0039V46.1754H0.416504V0.416504Z" fill="white"/>
</mask>
<g mask="url(#mask0_255_21)">
<path fill-rule="evenodd" clip-rule="evenodd" d="M11.9048 34.5132C12.4105 34.5132 12.9162 34.5772 13.4109 34.7097C14.9037 35.1116 16.2 36.1098 16.9685 37.4503C17.4676 38.2916 17.7437 39.2743 17.7525 40.2769C17.7525 41.7123 18.9052 42.8629 20.323 42.8629H23.09C24.5012 42.8629 25.6539 41.719 25.6605 40.3078C25.6517 38.7488 26.2612 37.267 27.3764 36.1518C28.4762 35.052 30.0132 34.3917 31.5502 34.4359C32.5572 34.4602 33.5266 34.7318 34.3812 35.2176C35.6113 35.9221 37.1814 35.5025 37.8925 34.2879L39.3588 31.8433C39.6857 31.2802 39.7806 30.5735 39.6062 29.9221C39.4339 29.2706 39.0011 28.7053 38.4181 28.3718C37.0533 27.5856 36.0795 26.3181 35.6753 24.7987C35.2756 23.3081 35.4942 21.6806 36.2738 20.3401C36.7817 19.4568 37.5259 18.7126 38.4181 18.2002C39.615 17.5002 40.0346 15.9345 39.339 14.7155C39.3102 14.6669 39.2837 14.6161 39.2617 14.5631L37.9676 12.3194C37.2631 11.0938 35.6952 10.672 34.4652 11.3721C33.1357 12.1582 31.5546 12.3835 30.0352 11.9838C28.5181 11.5907 27.2461 10.6301 26.4533 9.27414C25.9454 8.42614 25.6694 7.43901 25.6605 6.43422C25.6804 5.67897 25.4154 5.00101 24.934 4.50414C24.4548 4.00947 23.7812 3.72901 23.09 3.72901H20.323C19.6384 3.72901 18.998 3.99622 18.5144 4.47764C18.033 4.96126 17.7702 5.60389 17.7746 6.28847C17.7282 9.51705 15.0892 12.1163 11.8938 12.1163C10.8691 12.1052 9.882 11.8292 9.02516 11.3168C7.82162 10.6323 6.24929 11.0541 5.54483 12.2797L4.04979 14.7376C3.36521 15.9256 3.78479 17.4958 5.00379 18.2046C6.81241 19.2514 7.94087 21.2036 7.94087 23.2971C7.94087 25.3906 6.81241 27.3405 4.99937 28.3895C3.787 29.0917 3.36741 30.653 4.06966 31.8676L5.46312 34.2703C5.80762 34.8908 6.37075 35.3391 7.02221 35.5224C7.67146 35.7035 8.38696 35.6262 8.98321 35.2949C9.85991 34.7804 10.8802 34.5132 11.9048 34.5132M23.0898 46.1754H20.3228C17.0787 46.1754 14.4398 43.5386 14.4398 40.2946C14.4353 39.8949 14.3205 39.4797 14.1063 39.1198C13.7596 38.5147 13.1987 38.0818 12.5516 37.9096C11.909 37.7373 11.2046 37.8323 10.626 38.168C9.23914 38.9409 7.60718 39.1286 6.11434 38.709C4.62372 38.2872 3.33626 37.2625 2.58101 35.9044L1.2008 33.526C-0.41349 30.7259 0.547135 27.1373 3.34289 25.5208C4.13568 25.0637 4.62814 24.2113 4.62814 23.297C4.62814 22.3828 4.13568 21.5282 3.34289 21.071C0.544927 19.4457 -0.41349 15.8483 1.19859 13.0482L2.69584 10.5903C4.28805 7.82105 7.88764 6.84496 10.6944 8.45705C11.0765 8.6845 11.4916 8.79934 11.9134 8.80375C13.2892 8.80375 14.4398 7.66867 14.4618 6.273C14.453 4.7338 15.0603 3.25642 16.1667 2.14121C17.2775 1.02821 18.7526 0.416504 20.3228 0.416504H23.0898C24.671 0.416504 26.208 1.06575 27.3099 2.19421C28.4097 3.3293 29.017 4.88617 28.9706 6.46513C28.975 6.82067 29.0921 7.23142 29.3041 7.59138C29.6552 8.18763 30.2095 8.60721 30.8676 8.77946C31.5256 8.94288 32.2146 8.85455 32.7998 8.50784C35.6265 6.89355 39.2239 7.86079 40.8382 10.6654L42.214 13.0482C42.2493 13.1122 42.2802 13.174 42.3067 13.2381C43.7686 16.0007 42.7926 19.4788 40.0763 21.0666C39.681 21.2941 39.3608 21.6121 39.14 21.9963C38.7977 22.5904 38.7027 23.297 38.875 23.9463C39.0516 24.6088 39.4734 25.1587 40.0675 25.4988C41.4079 26.2695 42.4083 27.568 42.808 29.0674C43.2077 30.5647 42.9891 32.19 42.2096 33.5305L40.7432 35.9729C39.1289 38.7465 35.5316 39.7072 32.7336 38.0907C32.3604 37.8765 31.9298 37.7594 31.5013 37.7484H31.4881C30.8499 37.7484 30.194 38.02 29.717 38.4948C29.2334 38.9784 28.9684 39.6233 28.9728 40.3078C28.9573 43.5519 26.3184 46.1754 23.0898 46.1754" fill="#929292"/>
</g>
<path fill-rule="evenodd" clip-rule="evenodd" d="M21.7162 19.1304C19.4195 19.1304 17.5512 21.0009 17.5512 23.2976C17.5512 25.5942 19.4195 27.4603 21.7162 27.4603C24.0128 27.4603 25.8811 25.5942 25.8811 23.2976C25.8811 21.0009 24.0128 19.1304 21.7162 19.1304M21.7161 30.7727C17.5931 30.7727 14.2386 27.4205 14.2386 23.2975C14.2386 19.1745 17.5931 15.8179 21.7161 15.8179C25.839 15.8179 29.1935 19.1745 29.1935 23.2975C29.1935 27.4205 25.839 30.7727 21.7161 30.7727" fill="#929292"/>
</svg>
